
<svg xmlns="http://www.w3.org/2000/svg" version="1.1" xmlns:xlink="http://www.w3.org/1999/xlink" preserveAspectRatio="none" x="0px" y="0px" width="330px" height="60px" viewBox="0 0 330 60">
<defs>
<g id="Layer0_0_FILL">
<path fill="#44FFFF" stroke="none" d="
M 20.95 7.8
Q 21.05 7.6 20.95 7.4 20.65 6.25 20.05 5.25 19.95 5.05 19.7 4.95 19.5 4.9 19.25 4.95 19.05 5 18.9 5.05 17.15 5.5 16.3 4.75 15.5 3.85 15.9 2.1 16 1.9 16.05 1.7 16.1 1.45 16 1.25 15.9 1.05 15.7 0.95 14.7 0.35 13.55 0 13.35 -0.05 13.05 0.05 12.85 0.15 12.75 0.35 12.65 0.6 12.6 0.75 11.7 2.25 10.5 2.3 9.3 2.25 8.4 0.75 8.3 0.55 8.2 0.3 8.05 0.15 7.8 0.05 7.6 -0.05 7.4 0.05 6.3 0.35 5.25 0.95 5.05 1.05 4.95 1.25 4.85 1.45 4.95 1.75 5 1.95 5.05 2.15 5.55 3.85 4.75 4.75 3.85 5.55 2.1 5.1 1.9 5.05 1.7 5 1.45 4.9 1.25 5 1 5.1 0.9 5.3 0.35 6.3 0.05 7.45 -0.05 7.65 0.05 7.9 0.15 8.1 0.4 8.25 0.55 8.3 0.7 8.35 2.3 9.3 2.35 10.5 2.25 11.7 0.7 12.55
L 0.7 12.6
Q 0.55 12.65 0.35 12.75 0.15 12.85 0.05 13.15 -0.05 13.35 0.05 13.55 0.35 14.7 0.95 15.7 1.05 15.95 1.3 16 1.5 16.1 1.75 16 1.9 15.95 2.05 15.9
L 2.1 15.9
Q 3.85 15.45 4.75 16.3 5.55 17.15 5.05 18.9 5 19.05 4.95 19.2 4.9 19.5 4.95 19.7 5.05 19.95 5.25 20.05 6.3 20.65 7.45 20.95 7.65 21.05 7.95 20.95 8.15 20.85 8.25 20.6 8.3 20.5 8.4 20.3 9.3 18.75 10.5 18.7 11.7 18.75 12.6 20.3 12.65 20.5 12.75 20.65 12.85 20.85 13.05 20.95 13.35 21.05 13.55 20.95 14.7 20.65 15.75 20.05 15.9 19.9 16 19.7 16.1 19.45 16 19.2 15.95 19.05 15.95 18.95
L 15.9 18.95
Q 15.5 17.15 16.3 16.3 17.15 15.45 18.9 15.95 19.05 16 19.2 16.05 19.5 16.1 19.7 16.05 19.9 15.95 20 15.75 20.65 14.7 21 13.55 21.05 13.35 20.95 13.05 20.85 12.85 20.65 12.75 20.5 12.65 20.25 12.6 18.75 11.7 18.7 10.5 18.75 9.3 20.25 8.35
L 20.3 8.35
Q 20.5 8.3 20.65 8.2 20.85 8.05 20.95 7.8
M 10.5 4.1
Q 13.2 4.1 15 6 16.9 7.8 16.9 10.5 16.9 13.2 15 15 13.2 16.9 10.5 16.9 7.9 16.9 6 15 4.1 13.2 4.1 10.5 4.1 7.8 6 6 7.9 4.1 10.5 4.1
M 37.6 1.65
Q 37.95 1.45 38 1.05 38.05 0.7 37.8 0.35 37.55 0.05 37.15 0 36.7 -0.05 36.4 0.2
L 34 1.9 31.65 0.2
Q 31.3 -0.05 30.9 0 30.5 0.05 30.25 0.35 29.95 0.7 30.05 1.05 30.1 1.45 30.4 1.65
L 33.4 3.8
Q 33.65 4 34 4 34.35 4 34.6 3.8
L 37.6 1.65
M 78.45 2.5
Q 76 0.05 72.45 0 68.85 0 66.4 2.45 63.8 5.05 63.8 8.55 63.8 11.65 65.7 13.95
L 60.3 19.35
Q 60.05 19.7 60 20.05 60.05 20.4 60.3 20.75 60.5 21 60.95 21 61.35 21 61.55 20.75
L 67 15.35
Q 69.35 17.1 72.45 17.1 76 17.15 78.5 14.65 81.05 12.2 81 8.55 81 5.05 78.45 2.5
M 77.15 3.9
Q 79.1 5.85 79.1 8.55 79.1 11.35 77.15 13.3 75.15 15.3 72.45 15.3 69.65 15.3 67.75 13.4
L 67.7 13.35
Q 65.7 11.35 65.7 8.55 65.7 5.85 67.7 3.85 69.65 1.9 72.45 1.9 75.15 1.9 77.15 3.9
M 108.85 0
Q 108.5 0 108.35 0.2
L 100 9 91.25 0.2
Q 91 0 90.7 0 90.4 0 90.25 0.2 90 0.4 90 0.7 90 1 90.25 1.2
L 99.05 10.05 90.65 18.8
Q 90.45 19 90.45 19.3 90.45 19.6 90.7 19.8 90.9 20 91.25 20 91.5 20 91.7 19.8
L 100.05 11.05 108.8 19.8
Q 109 20 109.3 20 109.55 20 109.8 19.8 110 19.55 110 19.25 110 19 109.8 18.8
L 101.05 10.05 109.4 1.2
Q 109.55 1 109.55 0.7 109.55 0.35 109.4 0.2 109.15 0 108.85 0
M 130 0.65
Q 129.95 0.35 129.6 0.15 129.3 -0.05 129 0 128.6 0.05 128.3 0.3
L 120.2 9.55
Q 120 9.75 120 10 120 10.25 120.2 10.45
L 128.3 19.7
Q 128.6 19.95 129 20 129.3 20.05 129.6 19.85 129.95 19.65 130 19.35 130.05 19.05 129.75 18.75
L 122 10 129.75 1.25
Q 130.05 0.95 130 0.65 Z"/>

<path fill="#444444" stroke="none" d="
M 191.25 30.7
Q 190.55 30 189.5 30 188.45 30 187.7 30.7 187 31.45 187 32.5 187 33.55 187.7 34.25 188.45 35 189.5 35 190.55 35 191.25 34.25 192 33.55 192 32.5 192 31.45 191.25 30.7
M 194 32.5
Q 194 33.55 194.7 34.25 195.45 35 196.5 35 197.55 35 198.25 34.25 199 33.55 199 32.5 199 31.45 198.25 30.7 197.55 30 196.5 30 195.45 30 194.7 30.7 194 31.45 194 32.5
M 180.7 30.7
Q 180 31.45 180 32.5 180 33.55 180.7 34.25 181.45 35 182.5 35 183.55 35 184.25 34.25 185 33.55 185 32.5 185 31.45 184.25 30.7 183.55 30 182.5 30 181.45 30 180.7 30.7
M 289.7 9.3
Q 289.4 9 289 9
L 281 9 281 1
Q 281 0.6 280.7 0.3 280.4 0 280 0 279.6 0 279.3 0.3 279 0.6 279 1
L 279 9 271 9
Q 270.6 9 270.3 9.3 270 9.6 270 10 270 10.4 270.3 10.7 270.6 11 271 11
L 279 11 279 19
Q 279 19.4 279.3 19.7 279.6 20 280 20 280.4 20 280.7 19.7 281 19.4 281 19
L 281 11 289 11
Q 289.4 11 289.7 10.7 290 10.4 290 10 290 9.6 289.7 9.3 Z"/>

<path fill="#CC9900" stroke="none" d="
M 164.65 35.25
Q 164.5 35.05 164.15 35.05
L 159.8 34.95 158.35 30.6
Q 158.25 30.3 158.05 30.1 157.85 30 157.5 30 157.25 30 157.05 30.1 156.75 30.3 156.7 30.6
L 155.2 34.95 150.85 35.05
Q 150.6 35.05 150.4 35.2 150.2 35.3 150.05 35.65 149.95 35.9 150.05 36.1 150.1 36.4 150.4 36.6
L 153.8 39.4 152.6 43.8
Q 152.5 44.1 152.6 44.35 152.65 44.65 152.9 44.8 153.2 44.95 153.4 44.95 153.7 44.95 153.95 44.8
L 157.5 42.2 161.05 44.85
Q 161.3 45 161.6 45 161.85 45 162.1 44.85 162.35 44.65 162.4 44.35 162.5 44.15 162.45 43.9
L 161.2 39.45 164.7 36.65
Q 164.9 36.45 164.95 36.15 165.05 35.95 164.95 35.65 164.9 35.35 164.65 35.25 Z"/>

<path fill="#CCCCCC" stroke="none" d="
M 164.95 5.65
Q 164.9 5.4 164.65 5.25 164.5 5.05 164.15 5.05
L 159.8 4.95 158.35 0.6
Q 158.25 0.35 158.05 0.15 157.85 0 157.5 0 157.25 0 157.05 0.15 156.75 0.35 156.7 0.6
L 155.2 4.95 150.85 5.05
Q 150.6 5.05 150.4 5.2 150.2 5.35 150.05 5.65 149.95 5.9 150.05 6.15 150.1 6.4 150.4 6.6
L 153.8 9.4 152.6 13.85
Q 152.5 14.1 152.6 14.4 152.65 14.65 152.9 14.8 153.2 14.95 153.4 14.95 153.7 14.95 153.95 14.8
L 157.5 12.25 161.05 14.85
Q 161.3 15 161.6 15 161.85 15 162.1 14.85 162.35 14.65 162.4 14.4 162.5 14.15 162.45 13.9
L 161.2 9.45 164.7 6.65
Q 164.9 6.45 164.95 6.2 165.05 5.95 164.95 5.65
M 185 2.5
Q 185 1.45 184.25 0.7 183.55 0 182.5 0 181.45 0 180.7 0.7 180 1.45 180 2.5 180 3.55 180.7 4.25 181.45 5 182.5 5 183.55 5 184.25 4.25 185 3.55 185 2.5
M 192 2.5
Q 192 1.45 191.25 0.7 190.55 0 189.5 0 188.45 0 187.7 0.7 187 1.45 187 2.5 187 3.55 187.7 4.25 188.45 5 189.5 5 190.55 5 191.25 4.25 192 3.55 192 2.5
M 198.25 4.25
Q 199 3.55 199 2.5 199 1.45 198.25 0.7 197.55 0 196.5 0 195.45 0 194.7 0.7 194 1.45 194 2.5 194 3.55 194.7 4.25 195.45 5 196.5 5 197.55 5 198.25 4.25
M 224.2 5.75
Q 224.05 5.6 223.95 5.5 222.2 3.95 219.8 3.95 219.75 3.95 219.7 3.95 219.65 3.95 219.6 3.95
L 218.65 3.95 218.65 0.85
Q 218.65 0.55 218.45 0.3 218.3 0.05 217.95 0 217.65 -0.05 217.35 0.15
L 210.4 4.75
Q 210.15 4.9 210.05 5.2 210 5.35 210 5.5 210 5.65 210.05 5.8 210.15 6.05 210.4 6.25
L 217.35 10.9
Q 217.65 11.05 217.95 11 218.3 11 218.45 10.75 218.65 10.5 218.65 10.15
L 218.65 7.15 219.75 7.15
Q 221.05 7.15 221.9 8.05 222.1 8.25 222.3 8.5 222.35 8.5 222.35 8.55 222.5 8.7 222.55 8.9 222.75 9.25 222.85 9.65 222.85 9.8 222.85 9.95 222.9 10.2 223.05 10.35 223.25 10.5 223.5 10.5
L 225.35 10.5
Q 225.55 10.5 225.7 10.4 225.85 10.3 225.9 10.2 226 10.05 226 9.85 226 9.75 225.95 9.7
L 225.95 9.65
Q 225.9 9.05 225.75 8.45 225.7 8.2 225.6 8 225.6 7.95 225.55 7.9 225.1 6.75 224.2 5.75
M 254.25 10
Q 254.55 10 254.8 9.75 255 9.55 255 9.25
L 255 1.95 247.85 5.65
Q 247.7 5.75 247.5 5.75 247.3 5.75 247.15 5.65
L 240 1.95 240 9.25
Q 240 9.55 240.25 9.75 240.45 10 240.8 10
L 254.25 10
M 254.85 0.3
Q 254.85 0.25 254.8 0.2 254.55 0 254.25 0
L 240.8 0
Q 240.45 0 240.25 0.2 240.2 0.25 240.15 0.3
L 247.5 4.15 254.85 0.3 Z"/>

<path fill="#19558D" stroke="none" d="
M 219.8 33.95
Q 219.75 33.95 219.7 33.95 219.65 33.95 219.6 33.95
L 218.65 33.95 218.65 30.85
Q 218.65 30.55 218.45 30.3 218.3 30.05 217.95 30 217.65 29.95 217.35 30.15
L 210.4 34.75
Q 210.15 34.9 210.05 35.2 209.95 35.5 210.05 35.8 210.15 36.05 210.4 36.25
L 217.35 40.9
Q 217.65 41.05 217.95 41 218.3 41 218.45 40.75 218.65 40.5 218.65 40.15
L 218.65 37.15 219.75 37.15
Q 221.05 37.15 221.9 38.05 222.1 38.25 222.3 38.5 222.35 38.5 222.35 38.55 222.5 38.7 222.55 38.9 222.75 39.25 222.85 39.65 222.85 39.8 222.85 39.95 222.9 40.2 223.05 40.35 223.25 40.5 223.5 40.5
L 225.35 40.5
Q 225.55 40.5 225.7 40.4 225.85 40.3 225.9 40.2 226 40.05 226 39.85 226 39.75 225.95 39.7
L 225.95 39.65
Q 225.9 39.05 225.75 38.45 225.7 38.2 225.6 38 225.6 37.95 225.55 37.9 225.1 36.75 224.2 35.75 222.4 33.95 219.8 33.95 Z"/>

<path fill="#FF007F" stroke="none" d="
M 254.7 30.15
Q 254.5 30 254.25 30
L 240.8 30
Q 240.55 30 240.35 30.15
L 247.5 33.9 254.7 30.15
M 247.5 36.05
Q 247.25 36.05 247.05 35.9
L 240 32.25 240 39.25
Q 240 39.6 240.25 39.8 240.5 40 240.8 40
L 254.25 40
Q 254.55 40 254.8 39.8 255 39.6 255 39.25
L 255 32.25 248 35.9
Q 247.8 36.05 247.5 36.05 Z"/>

<path fill="#FFFFFF" stroke="none" d="
M 309 3
L 309 0 305 0 305 1 304 1 304 2 303 2 303 7 300 7 300 10 303 10 303 18 306 18 306 10 308 10 308 9 309 9 309 7 306 7 306 4 307 4 307 3 309 3 Z"/>
</g>
</defs>

<g transform="matrix( 1, 0, 0, 1, 0,0) ">
<use xlink:href="#Layer0_0_FILL"/>
</g>
</svg>

