<svg xmlns="http://www.w3.org/2000/svg" xmlns:xlink="http://www.w3.org/1999/xlink" width="182" height="44" preserveAspectRatio="none">
    <defs>
        <path id="a" fill="none" stroke="#665CFF" stroke-linecap="round" stroke-linejoin="miter" stroke-miterlimit="3" stroke-width="2" d="M99 37h82"/>
        <path id="b" fill="none" stroke="#000084" stroke-linecap="round" stroke-linejoin="miter" stroke-miterlimit="3" stroke-width="2" d="M1 37h81"/>
        <g id="c">
            <path fill="#665CFF" d="M171.95-153.45q-.85 1.4-.9 2.75 0 .9.6 2.35.6 1.4 1.95 2.9 2.15 2.15 2.8 3.25.7 1.1.65 1.9 0 .7-.6 1.2-.6.55-1.7.55-.85-.05-1.95-.75-1.1-.75-2-1.6-.9-.85-1.3-1.2-.1-.1-.45-.05-.3.05-.55.2-.65.5-1.05 1.25-.45.7-.45 1.2 0 .7.25 1.3.25.65.75 1.15.85.85 2.05 1.25 1.25.4 2.45.4.35 0 1.25-.2.9-.15 2-.55 1.15-.4 2.1-1.05 1.7-1.15 2.6-2.15.85-1.05 1.15-2 .35-.9.35-1.75 0-.9-.6-2.15-.55-1.2-1.8-2.6-2.05-2-3-3.25-.9-1.3-.85-2.35 0-.6.5-1.15.45-.55 1.2-.6.55 0 1.25.45.7.4 1.35 1 .7.6 1.25 1.05.6.6.95.7.35.1.65.05.2 0 .55-.5.35-.5.65-1.1.3-.65.3-1.05 0-.6-.25-1.1-.25-.5-.6-1-.4-.45-1.4-.95-1-.45-2.65-.5-.3 0-1.2.25-.95.2-2.1.75-1.2.55-2.3 1.45-1.05.9-1.9 2.25M101-161.3q-.55-.45-1.15-.8-.7-.35-1.05-.35-.4 0-1 .4-.55.35-.9.75-.3.3-.5.7-.2.45-.45 1.25t-.6 2.35q-.05.15-.25.3-.15.15-.4.2-.55.25-1.3.55-.8.35-1.45.65-.7.25-.95.5-.1.05-.35.45-.2.4-.45.85-.2.45-.2.65 0 .25.3.4.3.15.55.1.65-.3 1.65-.6 1-.35 1.75-.55.15-.05.25.2.1.2.1.4-.45 1.85-1 4.4-.6 2.55-1.3 5.35-.65 2.85-1.3 5.5t-1.25 4.7q-.55 2.1-.9 3.2-.25.75-.6 1.2-.35.5-1 .8-.7.3-1.9.6-.55.1-1.05.65t-.5 1.05q0 .3.4.5t1.25.2q.6 0 1.6-.1 1-.05 1.8-.05 1 .05 2.3.15 1.3.05 2.5.1 1.25.1 2.05.15.85.05.95.05 1 0 1.5-.45.45-.45.45-.9-.05-.35-.55-.7-.45-.3-.9-.4-1.8-.4-2.25-1.1-.45-.65-.15-1.85.35-1.6.7-3t.7-2.95q0-.05.2-.2.25-.2.4-.15.7.35 1.3.55.6.2 1.05.2 1.4-.05 3.2-1 1.75-.85 3.2-1.95.85-.65 2-1.95 1.15-1.3 2.3-3.05 1.1-1.75 1.85-3.75.75-2.1.75-4.25.05-1.45-.55-2.95-.6-1.55-2.1-2.55-1.45-1.1-4.15-1.15-.9 0-1.9.15-.95.1-2 .2-.15 0-.3-.1t-.15-.25q.15-.65.25-1.4.05-.7.05-1.1 0-.35-.55-.8m-.7 7.75q.1-.35.4-.75.3-.4.4-.45.4-.15 1.35-.2.95-.1 1.75-.1.9-.05 1.6.75.75.75.75 2.5 0 .9-.3 2.25-.35 1.35-.75 2.75-.45 1.45-.95 2.6-.4 1.15-.7 1.7-.4.7-1.2 1.8-.8 1.1-1.75 1.95-.9.85-1.8.9-.4-.05-.9-.55-.55-.55-.85-1.3-.1-.15-.15-.5-.05-.35 0-.45.2-1.05.6-2.65.4-1.65.9-3.5.45-1.85.85-3.65.45-1.75.75-3.1m35.6-.95q-.9 1.45-.95 2.55 0 .3.1.65.15.35.45.4.25 0 .6-.25.35-.2.9-.65 1.4-1.25 2.3-1.25.45 0 .65.35.25.4.05 1.1-.35 1.25-1 3.3t-1.35 4.25q-.7 2.2-1.2 3.8-.5 1.6-.6 1.85-.15.45-.15 1 .05.6.25.9.15.2.9.65.8.4 1.95.45.4 0 .95-.45.55-.5 1.1-1.7.85-2 1.9-4.4 1.1-2.4 2.3-4.75 1.2-2.35 2.35-4.2.3-.6.85-1.05.55-.5.9-.55.45.05 1 .6.55.45.85.8.2.05.55.05h.5q.6-.35 1.35-1.1.7-.8 1.25-1.75.276-.477.4-.95l.1.1q.2.15.4.2.7.05 1.6.1.8.05 1.35.05.15.05.15.2.05.2 0 .35l-4.1 13.4q-.25.95-.4 1.65-.1.7-.1.85 0 .4.25 1t.8 1.1q.5.45 1.25.5 1.2-.05 3.05-1 1.8-.9 3.5-2.2 1.7-1.3 2.6-2.4.4-.5.65-1.1.3-.6.3-1.15 0-.4-.3-.7-.3-.3-.5-.25-1.35 1.2-2.65 2.1-1.35.9-2 .95-.2.05-.35-.35-.15-.4.2-1.7.9-3.15 1.8-6 .95-2.85 1.55-4.85.1-.15.3-.3.15-.2.35-.2l4.8.2q.2 0 .45-.45.25-.5.4-1.05.2-.55.2-.75 0-.25-.1-.45-.15-.25-.3-.3h-4.6q-.2 0-.35-.15-.1-.15-.05-.4l.6-2q.3-1 .5-1.75.2-.8.2-1-.05-.25-.8-.5-.8-.2-1.75-.2-.25-.05-.9.2t-1 .8q-.3.65-.8 1.6-.45.95-.9 1.75-.4.85-.6 1.15-.05.1-.25.3-.2.15-.3.2-.3.05-.95.05-.75.05-1.45.05h-1q-.15.1-.5.7-.117.185-.2.35-.168-.598-.85-1.2-.9-.75-2.15-.8-.7 0-1.6.35-.85.35-1.85 1.35-.7.65-1.55 1.8-.8 1.15-1.55 2.35-.75 1.2-1.3 2.1-.5.85-.6 1.05-.2.3-.4.2-.15-.1-.1-.35.3-.85.6-2.05.35-1.2.6-2.25.3-1 .3-1.35 0-1.25-.55-2.2-.5-.95-2-1-2.15.05-3.75 1.15-1.65 1.1-2.55 2.5m-5.8-2.45q-1.6-1.15-3.95-1.2-.85 0-2.05.35-1.2.3-2.3.75-1.15.5-1.85 1-1.65 1.25-2.95 3.15-1.35 1.95-2.2 4.35-.8 2.35-.85 4.95 0 2 .9 3.85t2.5 3.1q1.65 1.2 3.85 1.25 1.5-.05 3.1-.55 1.6-.55 2.85-1.3 1.9-1.35 3.35-3.4 1.4-2.1 2.15-4.5.8-2.4.8-4.85 0-2.15-.85-4t-2.5-2.95m-5.3 1.75q.85-.55 1.4-.5 1.05.05 1.55.95.5.95.5 2-.05 2-.65 4.5t-1.55 4.75q-.9 2.3-1.9 3.55-.7 1.05-1.3 1.5-.5.45-1.1.45-.9 0-1.55-.75-.7-.8-.75-2.15 0-1.4.3-3.35.35-2 1.1-4.2.75-2.2 2-4.35 1.15-1.8 1.95-2.4Z"/>
            <path fill="#000084" d="M15.2-167.75q-1.9.1-3.5.2-1.65.1-2.6.1H4.9q-.65 0-1.25.25-.65.3-.7.8.05.45.6.85.55.4 1 .45 1.4.2 2.1.5.7.35.9.9.25.5.3 1.35.05.65.05 2.15.05 1.55.05 3.6.05 2.05.05 4.3 0 3.95-.05 6.15-.05 2.25-.15 3.25-.05 1.1-.1 1.5-.1 1.3-.85 1.95-.75.6-2.5.95-1 .2-1.45.65-.45.45-.45.85 0 .5.5.75.55.25 1.3.25.5 0 1.45-.05.95 0 2.05-.05H9.7q1.6.1 3.7.2 2.15.1 4.65.15.8 0 2.15-.1 1.35-.15 2.75-.4t2.5-.65q1.55-.55 3.1-1.65 1.5-1.1 2.55-2.85 1-1.7 1.05-4.2 0-2.05-.9-3.6-.95-1.55-2.45-2.6-1.45-1.1-3.2-1.65-.2-.1-.2-.4-.05-.25.05-.35l1.1-.55q.6-.4 1.2-.75.5-.35.7-.5.65-.8 1.1-1.85.4-1 .4-2.4 0-1.6-.7-3.05-.7-1.45-2.05-2.5-1.05-.85-3.25-1.45t-5.1-.65q-1.75.05-3.65.15m.9 2.5q.55-.1.85-.1 2.85.05 4.5 1.65 1.7 1.6 1.75 4.2-.05 2.05-.7 3.05-.55 1.05-1 1.35-.3.2-1.1.45-.85.25-1.9.45-1.05.2-2 .2-.75 0-1.1-.25-.3-.25-.4-.6-.1-.45-.15-2.05 0-1.55.05-3.6.05-2 .1-3.8.05-.4.15-.55.05-.15.2-.25l.75-.15M15.25-151q.2-.35.3-.45.3-.15.95-.2.65-.1 1.1-.1 1.65 0 3.2.7 1.6.7 2.6 2.15 1.05 1.5 1.1 3.85 0 1-.25 2t-.55 1.75q-.15.5-.85 1.2-.65.65-1.7 1.25-.95.55-2.15.6-.7 0-1.55-.45-.8-.45-1.45-1.15-.6-.7-.8-1.5-.1-.55-.2-1.8t-.15-2.7q-.05-1.45 0-2.65 0-1.25.05-1.75.1-.4.35-.75m37.9-10.55q0-.4-.05-1.25-.1-.85-.15-1.65-.1-.85-.1-1.2 0-.45-.2-.9-.25-.45-.5-.55-1.5-.4-3.35-.85-1.85-.45-3.9-.5-2.1 0-3.95.5-1.8.45-3.2 1.3-1.2.65-2.25 1.75-1.05 1.05-1.7 2.45-.65 1.45-.65 3.15 0 2.4.95 4.25 1 1.9 2.95 3.45 1.9 1.55 4.7 3.1 2.7 1.5 3.9 2.65 1.25 1.15 1.6 2.1.35.95.3 1.9-.05 1.4-.75 2.3-.7.95-1.75 1.45-1 .45-2.05.45-2.35 0-4.4-1.55-2.1-1.5-3.6-4.45-.45-.85-.9-1.3-.4-.45-.85-.45-.55.05-.85.65-.35.65-.35 1.45-.05 1 .15 2.55.2 1.55.85 2.9.2.45.55.7.35.25.6.4.95.5 3.05 1 2.1.5 5 .55 1.15 0 2.55-.25t2.7-.75q1.3-.45 2.35-1.05.9-.55 1.95-1.55 1.05-1 1.8-2.5t.75-3.5q0-2.4-1.2-4.25-1.15-1.9-3.35-3.45-2.15-1.6-5.2-3.15-2.65-1.35-3.85-2.8-1.25-1.4-1.2-3.35 0-1.1.6-2.1.55-1 1.6-1.65 1-.6 2.25-.6 2.35.05 4.1 1.6 1.75 1.55 2.55 4 .15.35.45.8.25.4.65.45.55 0 1-.55.4-.5.4-1.7m35.15 6q-.4-2.05-1.55-4.1-1.2-2.05-3.35-3.85-2.9-2.45-6.5-3.4-3.55-.95-7.35-.95-1.85 0-3.85.1t-3.65.2q-1.7.1-2.65.05l-3.8.05q-1.1 0-1.7.25-.6.3-.6.85 0 .45.5.8.5.4 1.4.6 1.3.25 1.9.55.6.3.8.7.15.3.2.6.15.7.2 1.7.05 1.05.05 2.95v5.4q0 3.4-.05 5.6 0 2.2-.1 3.6-.05 1.45-.2 2.45-.15 1.15-.6 1.65-.4.55-1.1.75-.6.2-1.45.4-.95.3-1.5.9-.5.6-.5 1.05 0 .3.25.55.25.2.6.15 1.55-.05 3.25-.15 1.75-.05 3-.05.65 0 1.85.1 1.15.05 2.55.15 1.4.05 2.7.1 1.25.1 2.05.1 2.95 0 5.9-.55 2.9-.5 5.7-1.95 1.1-.6 2.45-1.7t2.6-2.8q1.3-1.65 2.1-3.95.85-2.3.85-5.3.05-1.65-.4-3.6m-15-8.9q2.1.85 3.9 2.6 1.95 2 2.85 4.65.85 2.65.8 5.6 0 1.95-.35 3.85-.35 1.95-1.15 3.6-.75 1.65-1.95 2.8t-2.55 1.8q-1.35.7-2.45 1.05-1.1.3-1.5.3-.55 0-1.3-.25-.7-.25-1.4-.55-.65-.3-1-.5-.4-.35-.85-1.1-.4-.75-.55-1.85-.1-.75-.2-1.6-.05-.85-.1-2.55-.05-1.7-.05-5v-3.65q0-2.95.05-5.05.1-2.1.2-3.3 0-.3.3-.7.3-.45.45-.55.3-.1.9-.2.55-.1 1.2-.2.55-.05.8-.05 1.85 0 3.95.85Z"/>
        </g>
    </defs>
    <use xlink:href="#a"/>
    <use xlink:href="#b"/>
    <use xlink:href="#c" transform="matrix(1.00055 0 0 1 -1.45 168.45)"/>
</svg>
