<svg xmlns="http://www.w3.org/2000/svg" xmlns:xlink="http://www.w3.org/1999/xlink" width="72" height="24" preserveAspectRatio="none">
    <defs>
        <path id="a" d="M18.35 23.45q-.3-1.3-.4-2.25L16 20.5q.05 1.2.25 2.2l2.1.75M16.3 16.1l1.5 1.1q.1-1.05.3-2l-1.25-.95q-.3.6-.55 1.85M2.1 17.7q.4-.95.85-2.05l-2.05-.8Q.35 16.05 0 17l2.1.7m3.65-9.5L7.2 9.35q.65-.8 1.15-1.35l-1.2-1.1q-.85.75-1.4 1.3m13.15 2.4.85 1.25q.35-.5 1.05-1.25L20 9.45q-.6.55-1.1 1.15m-3.65-7.7-.8-1.25q-.6.25-1.5.7l.85 1.25q.9-.45 1.45-.7M30.3 12h-6.95v12h3.55v-2.9l3 2.9h5.15l-4.1-3.8.5-.1q.6-.15 1.1-.5 1.55-1.1 1.55-3.45 0-2.4-1.9-3.5-.65-.35-1.3-.55l-.6-.1m-3.4 3h2.8l.35.3q.4.4.4 1.1 0 .65-.4 1.05l-.4.25H26.9V15m-5.15-7.65q1.45-.75 2.3-1.05 1.85-.55 3.85-.55 5.75-.15 12.35 4.45.3-.25.6-.45-2.35-2.25-5.95-4.3-7.25-4.3-13.85-3.65-3.95.3-8.3 3.4Q8.9 7.95 6.3 11.75q-.4.5-.8 1.05-2.35 3.8-3.55 7.85-.5 1.7-.65 2.9-.05.2-.05.45h14.2q-.05-.25-.1-.45-.55-2.85-.05-6.1.85-7.1 6.45-10.1m1.65.05.35 1.2q.85-.45 1.65-.6l-.45-1.15q-.7.2-1.55.55M22.55 1h.15l-.35-1q-.75 0-1.7.1l.3 1q.7-.1 1.6-.1m8.35 1.75.1-1.2q-.5-.2-1.75-.55l-.1 1.1q.8.25 1.75.65m0 4.95.1-1.1q-.8-.1-1.8-.2l-.05 1.1q.9 0 1.75.2m16.8 4.35V24h3.65V12.05H47.7m-1.6 3.15q0-1.7-1.4-2.5-.9-.65-1.95-.65H39.2q-1.7 0-2.65 1.25-.75.85-.75 1.9V24h3.55v-2.1h3.35V24h3.4v-8.8m-5.6-.3h1.2q.6 0 .85.35.1.15.1.35v2.9h-3.3v-2.9l.15-.35q.3-.35 1-.35M61.55 24v-3.1H56.6v-8.85h-3.65V24h8.6m4.15-7.45v-1.4h5.85v-3.1h-5.6q-1.25 0-2.2.85-1.2.9-1.2 2.35v1.05q0 1.4 1.2 2.4.9.8 2.2.8h2.8v1.45h-6V24h5.9q.9 0 1.75-.45.2-.1.4-.25.4-.3.7-.75.45-.7.5-1.7V19.7q0-.95-.5-1.7-.2-.3-.5-.6-1.05-.85-2.35-.85H65.7Z"/>
    </defs>
    <use xlink:href="#a"/>
</svg>
