<svg xmlns="http://www.w3.org/2000/svg" xmlns:xlink="http://www.w3.org/1999/xlink" width="79" height="27" preserveAspectRatio="none">
    <defs>
        <g id="a">
            <path d="M52.65 12.1H51v6.05h1.65V14.8q.05-.65.3-.95.3-.3.75-.3.5 0 .75.3t.3.95v3.35h1.65v-3.9q0-1.05-.55-1.6-.5-.65-1.45-.65-.65 0-1.05.3-.4.25-.7.7v-.9m14.65 0h-1.65V16q0 1.1.55 1.65.5.6 1.45.6.65 0 1.05-.3.4-.25.7-.65v.85h1.65V12.1H69.4v3.4q0 .6-.3.9-.3.35-.75.35-.5 0-.75-.35-.25-.3-.3-.9v-3.4m-3.6 0h-1.65v3.4q0 .6-.3.9-.3.35-.75.35-.5 0-.75-.35-.25-.3-.3-.9v-3.4H58.3V16q0 1.1.55 1.65.5.6 1.45.6.65 0 1.05-.3.4-.25.7-.65v.85h1.65V12.1m12.85.15Q76.1 12 75.4 12t-1.3.3q-.55.4-.95 1-.35.6-.35 1.55 0 .9.35 1.5.35.65.95 1 .6.3 1.3.3.65 0 1.1-.25.45-.25.85-.7v.3q0 .8-.45 1.2-.4.45-1.25.45-.6 0-1.05-.2-.5-.15-.95-.4l-.55 1.3q.55.3 1.2.45.65.2 1.4.2.85 0 1.5-.2.6-.2 1.05-.6.35-.4.55-1 .2-.6.2-1.4v-4.7h-1.7v.85q-.3-.45-.75-.7m.6 3.35q-.2.3-.55.45-.3.2-.7.2-.65-.05-1.05-.4-.4-.35-.4-1t.4-1.05q.4-.35 1.05-.35.4 0 .7.15.35.2.55.5.15.3.2.75-.05.4-.2.75m-34.9.05q1.75-.1 2.9-.5.1 0 .1-.1.2-.25.55-.7.2-.45.2-.65-.15-.2-1.45-1.05-1.45-.95-1.6-1.15-1.7-1.8-5.15-1.85-.35 0-1.05-.1-.4-.15-1.05-.15-.6 0-.6.1-.65 0-3.1-.6-1.305-.272-2.05-.5-.595-.136-.8-.25-1.25-.65-4.65-.45-4.15.3-7.4-.5-1.119-.09-2.1-.15-2.79-.11-4.35.15-.9.2-2.85 1.2-1.6.9-2.25 1.45-.75.8-1.45 2.3-.2.35-.35 1.15-.05.75-.05 1.1 0 .1.2.15h.15q.15 1-.15 2-.2.95-.15 1.15.1.5-1.05 1.5-1.3 1.3-1.6 1.7.25.1-.2.75-.05.05-.85 1.15-.1.4.15 1.2.15.5.55 1.3.5.4.8.75.25.3 1.05.8 1.65.2 3.65.15.1-.8-.7-1.3-.2 0-.45-.3-.5-.4-.55-.5-.8-1.25-.35-1.85.2-.25 1.7-1 .65-.25 1.4-1.15.7-.85.9-.9.45.4.65.65.05.15.2.9l.05 2.1q0 2.15.85 2.25.5.15 1.35.45.45.2 1.45.2.75.1 2.2 0 0-.65-.6-1.2-1.35-.65-1.4-.7-.35-.25.15-2.3.5-2.3.35-2.55.75.1 2.05.2.45-.1 1.7.05.35-.05 1.1-.05.75 0 1 .05.2-.05 2-.2-.05.8 0 2.05.15 1.15 0 2.25-.3.2-.55.55-.2.45-.85 1 .2.3.35.45.3.2.9.2.8-.2 1.55-.55.9-.4 1.4-.9.35-.35.7-2.5.4-2.7.4-2.75 0-.15.15-.35.15 0 .15-.1.2 0 .3-.05l.95 1.9q.1 0 .55.65 2.15 2.6 4.3 4.85.2.3 1.95.3.55.05 3-.05-.1-.45-.15-.65-.05-.3-.4-.5-.9-.3-1.4-.75-.35-.2-.7-.6-.35-.65-1.4-2.4-1.2-1.85-1.55-2.35-.1-.55-.25-.85-.15-.4-.2-.9.15-.1.15-.25.2-.15.4-.15.9-.75 1.5-.75.8-.35 1.35-.5 1.45-.35 3.25-.35 1.9.05 2.85.05.95-.05 2.25-.2Z"/>
            <path fill="#999" d="M29.8 5.65q-.5-1.55-1.4-2.7-.2-.45-.5-.9Q26.45.75 24.8.3 23.6 0 22.5 0h-.2q-2.9.05-5.15 2.05-1.3 1.4-1.8 3.05-.286.9-.35 1.95.981.06 2.1.15 3.25.8 7.4.5 3.4-.2 4.65.45.205.114.8.25.05-.415.05-.85 0-1.15-.2-1.9Z"/>
        </g>
    </defs>
    <use xlink:href="#a"/>
</svg>
