<svg xmlns="http://www.w3.org/2000/svg" xmlns:xlink="http://www.w3.org/1999/xlink" width="108" height="25" preserveAspectRatio="none">
    <defs>
        <path id="a" d="M65.55 5.85Q64.85 5 64.5 4.7q-.35-.35-1.05-.55-.35-.1-1.7-.35-.4-.6-.9-.7-.25-.05-.5-.05-.15 0-.3.05-.65.15-1 .7-.45 0-1.8.5-1.35.55-2.05 1.05-.65.5-2.7.55h-.4q-2.3 0-3.5-.55-.5-.2-1.15-.85-.25-.2-1.25-1.3-1.8-1.85-3.15-2.55-1.2-.6-2.7-.65h-.8q-.3.05-.65.05-.7.1-1.5.25l-.65.2q-.1 0-.2-.05-.2-.05-.45 0-.15 0-.35.05-2 .15-5.15 2.4-1.3.95-3.05 2.45-1.75 1.5-2.45 2-1.6 1.4-3.5 2.25-1.35.65-3.25 1.2-1.5.55-6.05 1.25-4.3.7-6.65 1-1.85.1-3.75 1.4Q.55 15.4.05 16.1q-.15.25.05.6.2.3.6.6.3.3.6.45.5.2.85.05 0-.05.05-.05.6-.4 2.05-1.15 1.65-.8 2.55-1.2.85-.4 4.1-.9 2.5-.3 4.55-.55 1.4-.1 4.9-1.1 3.25-.9 3.65-1.1.6-.5.7-.55.35-.1.5.15.1.15.15.4.2.8 1 1.5.45.45.95.6.35.1.75.05v-.05h.05q.6-.1.8 0 .05.05.1.15.05.25-.35 1-.3.7.15 1.5.45.85 1.4.85.8 0 2.85.25 1.95.25 2.15.25.5 0 .3.25-.2.2-.95.5-.85.3-.95.65-.15.35.75.65.75.3 1.7.35h.75q1.15-.05 1.6-.45.45-.3.65-1.05.2-.95.35-1.1.15-.2.3-.1.1.1.2.4.05.15.05.3 0 .55-.25 1.05-.5.95-.8 1.4-.5.85-1.05.85-.6 0-1.85.45-1.05.35-1.8.8-.75.3-1.05 1-.35.75.45 1 .3.15.6.15.45.1.8.05 0-.05.05-.05.65-.1 1.15-.6.35-.35 1.65-.45 1.5-.15 2.1-.45.95-.35 1.5-.95.35-.5.45-.95.05-.35.35-.45l.4-.15q0 .25.1.45.15.2.4.3.1.05.45.15.4.1.8.35.55.35 1.2.4.35.05.7.05.05-.05.15-.05.85-.05 1.4-.6.55-.55.2-.9-.25-.3-1.2-.5-1.7-.55-2.55-.95-.55-.3.05-.55.45-.2 1.35-.4l2.5-.5q1.85-.35 2.25-.85.55-.55 1.9-1.6 1.35-1.05 2.05-1.4 1.4-.45 2.6-1.1.9-.45 2.15-1.3 1.35-.85 2.85-.7.15.05.4.1.15 0 1.3.5.65.25 1.05.4.25.05.35.05.25 0 .45-.05.35-.1.7-.3.65-.35.7-1.05.1-.55.35-1.1.2-.35.6-.85.25-.35-.25-.9-.7-.7-.95-1-.35-.25-1.15-1.2m-27.7 8.55q0 .4-.25.85-.1.05-.15.15-.2.2-.35.1-.2-.1-.8-.2-.85-.05-1.3-.1-1.45-.15-.55-.7.4-.15 1.25-1.4.4-.6.7-1.15 0 .65.05 1 0 .05.05.1.05.45.25.6.05.05.7.35.4.2.4.4m41.45-2.8q0-.65-.45-1.15-.5-.45-1.35-.45H75v4.9h1.2v-1.6h1.3q.85 0 1.35-.55.45-.4.45-1.15m-2-.6q.3 0 .45.15.2.15.2.4t-.2.35q-.15.15-.45.15h-1.1V11h1.1m11.6-1h-1.35v2.85q0 .45-.25.7-.35.25-.9.25-.5 0-.75-.25-.3-.25-.3-.7V10H84v2.9q0 .9.6 1.45.65.65 1.85.65 1.2 0 1.85-.6.6-.6.6-1.5V10m9.95 0H97l-1.05 2.7L94.9 10h-1.95v4.9h1.45v-3.3l1.25 3.3h.55l1.3-3.3v3.3h1.35V10m7.15 0h-1.6l-1.95 4.9h1.5l.25-.7h2l.25.7H108l-2-4.9m-.15 3h-1.3l.65-1.9.65 1.9Z"/>
    </defs>
    <use xlink:href="#a"/>
</svg>
