<svg xmlns="http://www.w3.org/2000/svg" xmlns:xlink="http://www.w3.org/1999/xlink" width="20" height="20" preserveAspectRatio="none">
    <defs>
        <path id="a" fill="#FFF" d="M16.65 17.25q.25 0 .45-.2t.2-.45q0-.3-.2-.5l-2.6-2.65q-.2-.2-.5-.2-.25 0-.45.2t-.2.45q0 .3.2.5l2.6 2.65q.2.2.5.2M6.7 13.9q0-.25-.15-.45-.25-.2-.5-.2t-.45.25l-2.65 2.65-.15.15q-.05.154-.05.35 0 .2.25.4.15.2.45.2.25 0 .4-.2l2.7-2.65q.15-.25.15-.5m3.3 1.05q-.3 0-.45.2-.2.15-.2.45v3.75q0 .25.2.45.15.2.45.2.3 0 .45-.2.2-.2.2-.45V15.6q0-.3-.2-.45-.15-.2-.45-.2M.2 9.55Q0 9.7 0 10q0 .3.2.45.15.2.45.2H4.4q.25 0 .45-.2.2-.15.2-.45 0-.3-.2-.45-.2-.2-.45-.2H.65q-.3 0-.45.2M6.7 6q0-.3-.15-.5l-2.7-2.6q-.15-.2-.45-.2-.25 0-.45.2t-.2.45q0 .3.2.5l2.65 2.6q.2.2.45.2.3 0 .5-.2.15-.2.15-.45m8.25 4q0 .3.2.45.15.2.45.2h3.75q.25 0 .45-.2.2-.15.2-.45 0-.3-.2-.45-.2-.2-.45-.2H15.6q-.3 0-.45.2-.2.15-.2.45m-2.65 2.35.05-.05q.9-.95.9-2.3 0-1.35-.95-2.35-.95-.95-2.3-.95-1.35 0-2.35.95-.95 1-.95 2.35t.95 2.3q1 .95 2.35.95t2.3-.9M10.65.65q0-.3-.2-.45Q10.3 0 10 0q-.3 0-.45.2-.2.15-.2.45V4.4q0 .25.2.45.15.2.45.2.3 0 .45-.2.2-.2.2-.45V.65M16.3 2.8q-.081.064-.15.15L13.5 5.6q-.2.2-.2.45t.25.45q.2.2.45.2t.45-.2l2.65-2.65q.2-.25.2-.5t-.2-.45q-.25-.2-.45-.2-.196 0-.35.1Z"/>
    </defs>
    <use xlink:href="#a"/>
</svg>
