<svg xmlns="http://www.w3.org/2000/svg" xmlns:xlink="http://www.w3.org/1999/xlink" preserveAspectRatio="none" width="300" height="300" viewBox="0 0 300 300"><defs><path fill="#fff" d="M300 150q0-62.15-43.95-106.15Q212.15 0 150 0T43.85 43.85Q0 87.85 0 150q0 62.15 43.85 106.05Q87.85 300 150 300q62.15 0 106.05-43.95Q300 212.15 300 150m-50.1-99.95q41.35 41.4 41.35 99.95 0 58.55-41.35 99.9-41.35 41.35-99.9 41.35-58.55 0-99.95-41.35Q8.7 208.55 8.7 150q0-58.5 41.35-99.95Q91.5 8.7 150 8.7q58.55 0 99.9 41.35M241 147.5L103 59v177l138-88.5z" id="a"/></defs><use xlink:href="#a"/></svg>

