<svg xmlns="http://www.w3.org/2000/svg" xmlns:xlink="http://www.w3.org/1999/xlink" preserveAspectRatio="none" width="120" height="60" viewBox="0 0 120 60"><defs><path fill="#444" d="M107.85 1.7q.2-.3.15-.8-.1-.4-.45-.7-.4-.25-.8-.2-.5.1-.75.4l-15.75 19q-.25.3-.25.6t.25.6l15.75 19q.25.3.75.35.4.1.8-.15.35-.3.45-.8.05-.4-.15-.7L92.6 20l15.25-18.3M8 3h1V2h1V0H8v1H7v1H6v1H5v1H4v1H3V4H2V3H0v2h1v1h1v1h1v1h1V7h1V6h1V5h1V4h1V3m23 6V7h-1v3h3V9h-2m8-6h1V2h-1V1h-1V0h-1v1h-1v1h-1v1h-1v1h-1v1h-1v1h-1v1h1v1h1v1h1V8h1V7h1V6h1V5h1V4h1V3m-1-1v1h-1v1h-1v1h-1v1h-1v1h-1V6h1V5h1V4h1V3h1V2h1m31 1V2h1V1h-1V0h-1v1h-1v1h-1v1h-2V2h-1V1h-1V0h-1v1h-1v1h1v1h1v1h1v2h-1v1h-1v1h-1v1h1v1h1V9h1V8h1V7h2v1h1v1h1v1h1V9h1V8h-1V7h-1V6h-1V4h1V3h1z" id="a"/></defs><use xlink:href="#a"/></svg>

